<svg width="82" height="96" viewBox="0 0 82 96" fill="none"
    xmlns="http://www.w3.org/2000/svg">
    <path d="M41 89.6265C63.0823 89.6265 81 71.7282 81 49.6265C81 27.5248 63.0823 9.62646 41 9.62646C18.9177 9.62646 1 27.5248 1 49.6265C1 71.7282 18.8983 89.6265 41 89.6265Z" stroke="#00FFFF" stroke-miterlimit="10"/>
    <path d="M40.9984 85.2104C60.6594 85.2104 76.6013 69.2685 76.6013 49.6075C76.6013 29.9464 60.6594 14.0239 40.9984 14.0239C21.3374 14.0239 5.39551 29.9658 5.39551 49.6268C5.39551 69.2878 21.3374 85.2297 40.9984 85.2297V85.2104Z" stroke="#00FFFF" stroke-miterlimit="10"/>
    <path d="M41.4238 43.2528V25.4707C46.3633 33.6644 51.2447 41.7419 56.1066 49.8387C56.1066 49.8581 56.0873 49.8775 56.0679 49.8969C51.1865 47.6693 46.3052 45.461 41.4238 43.2334V43.2528Z" fill="#00FFFF"/>
    <path d="M41.4238 44.144C46.3052 46.3523 51.1672 48.5605 56.0873 50.8075C51.1672 53.7131 46.3246 56.5799 41.4238 59.4854V44.144Z" fill="#00FFFF"/>
    <path d="M40.5734 43.2528C40.5734 37.3642 40.5734 31.4755 40.5734 25.4707C35.634 33.6644 30.7526 41.7419 25.8906 49.8387C25.8906 49.8581 25.91 49.8775 25.9294 49.8969C30.8107 47.6693 35.6921 45.461 40.5734 43.2334V43.2528Z" fill="#00FFFF"/>
    <path d="M40.5716 44.144C35.6903 46.3523 30.8283 48.5605 25.9082 50.8075C30.8283 53.7131 35.6709 56.5799 40.5716 59.4854C40.5716 54.3523 40.5716 49.2772 40.5716 44.144Z" fill="#00FFFF"/>
    <path d="M55.7598 54.333C50.9946 61.0352 46.2295 67.7374 41.445 74.4977C41.445 74.3621 41.4062 74.2652 41.4062 74.1877C41.4062 70.4686 41.4062 66.7495 41.4062 63.0304C41.4062 62.8754 41.5225 62.6623 41.6387 62.5848C46.3263 59.7955 51.014 57.0449 55.7016 54.2749C55.721 54.2749 55.7404 54.3136 55.7598 54.3136V54.333Z" fill="#00FFFF"/>
    <path d="M26.4917 54.4102C31.1212 57.1414 35.7508 59.8726 40.3803 62.6232C40.4965 62.7007 40.6321 62.8944 40.6321 63.03C40.6321 66.7685 40.6321 70.4876 40.6321 74.2261C40.6321 74.2649 40.6321 74.3036 40.5934 74.4198C35.8476 67.737 31.1406 61.1123 26.4336 54.4683C26.453 54.4683 26.4723 54.4295 26.4917 54.4295V54.4102Z" fill="#00FFFF"/>
    <path d="M53.3131 0H26.5935C21.4338 0 17.251 4.18279 17.251 9.34252V10.0899C17.251 15.2497 21.4338 19.4324 26.5935 19.4324H53.3131C58.4728 19.4324 62.6556 15.2497 62.6556 10.0899V9.34252C62.6556 4.18279 58.4728 0 53.3131 0Z" fill="#00FFFF"/>
    <path d="M29.7342 5.53379H35.4802V7.17179H31.4502V9.25179H35.3242V10.8898H31.4502V12.9958H35.6362V14.6338H29.7342V5.53379ZM37.3302 5.53379H43.8822V7.17179H41.4642V14.6338H39.7482V7.17179H37.3302V5.53379ZM45.3812 5.53379H47.0972V9.25179H50.0352V5.53379H51.7512V14.6338H50.0352V10.8898H47.0972V14.6338H45.3812V5.53379Z" fill="#0D1238"/>
    <path d="M61.8313 77H18.1687C10.8958 77 8 81.0897 8 86.1346V86.8654C8 91.9103 10.8958 96 18.1687 96H61.8313C69.1042 96 72 91.9103 72 86.8654V86.1346C72 81.0897 69.1042 77 61.8313 77Z" fill="#00FFFF"/>
    <path d="M16.8278 83H21.2478V84.26H18.1478V85.86H21.1278V87.12H18.1478V88.74H21.3678V90H16.8278V83ZM22.7709 85.04H24.2409V83H25.5009V85.04H27.2909V86.24H25.5009V88.5C25.5009 88.7 25.5909 88.8 25.7709 88.8H27.1109V90H25.0109C24.7842 90 24.5975 89.9267 24.4509 89.78C24.3109 89.6333 24.2409 89.4467 24.2409 89.22V86.24H22.7709V85.04ZM30.3139 90H29.0539V83H30.3139V85.84H30.4939C30.6206 85.54 30.8072 85.31 31.0539 85.15C31.3006 84.9833 31.6039 84.9 31.9639 84.9C32.2106 84.9 32.4372 84.94 32.6439 85.02C32.8506 85.1 33.0306 85.22 33.1839 85.38C33.3372 85.54 33.4572 85.7467 33.5439 86C33.6306 86.2467 33.6739 86.54 33.6739 86.88V90H32.4139V87.18C32.4139 86.8267 32.3272 86.55 32.1539 86.35C31.9872 86.1433 31.7439 86.04 31.4239 86.04C31.0506 86.04 30.7706 86.1667 30.5839 86.42C30.4039 86.6667 30.3139 87 30.3139 87.42V90ZM36.267 87.93C36.2736 88.0767 36.307 88.2133 36.367 88.34C36.4336 88.46 36.5203 88.5667 36.627 88.66C36.7403 88.7467 36.867 88.8167 37.007 88.87C37.1536 88.9167 37.307 88.94 37.467 88.94C37.7803 88.94 38.0203 88.8867 38.187 88.78C38.3536 88.6667 38.4736 88.5333 38.547 88.38L39.627 88.98C39.567 89.1067 39.4836 89.24 39.377 89.38C39.2703 89.5133 39.1303 89.6367 38.957 89.75C38.7903 89.8633 38.5836 89.9567 38.337 90.03C38.097 90.1033 37.8136 90.14 37.487 90.14C37.1136 90.14 36.7736 90.08 36.467 89.96C36.1603 89.84 35.8936 89.6667 35.667 89.44C35.447 89.2133 35.2736 88.9367 35.147 88.61C35.027 88.2833 34.967 87.9133 34.967 87.5V87.44C34.967 87.06 35.0303 86.7133 35.157 86.4C35.2903 86.0867 35.4703 85.82 35.697 85.6C35.9236 85.38 36.187 85.21 36.487 85.09C36.7936 84.9633 37.1203 84.9 37.467 84.9C37.8936 84.9 38.2603 84.9767 38.567 85.13C38.8736 85.2767 39.127 85.4667 39.327 85.7C39.527 85.9267 39.6736 86.18 39.767 86.46C39.8603 86.7333 39.907 87 39.907 87.26V87.93H36.267ZM37.457 86.04C37.137 86.04 36.877 86.1233 36.677 86.29C36.477 86.45 36.347 86.6367 36.287 86.85H38.627C38.587 86.6167 38.4603 86.4233 38.247 86.27C38.0403 86.1167 37.777 86.04 37.457 86.04ZM41.04 85.04H43.14V85.76H43.32C43.4133 85.4867 43.57 85.2767 43.79 85.13C44.0167 84.9767 44.2867 84.9 44.6 84.9C45.0933 84.9 45.49 85.0567 45.79 85.37C46.09 85.6767 46.24 86.1467 46.24 86.78V87L44.94 87.12V86.98C44.94 86.7067 44.87 86.49 44.73 86.33C44.59 86.1633 44.38 86.08 44.1 86.08C43.82 86.08 43.6 86.1767 43.44 86.37C43.28 86.5633 43.2 86.84 43.2 87.2V88.8H44.34V90H40.92V88.8H41.94V86.24H41.04V85.04ZM47.493 88.8H49.173V86.24H47.613V85.04H50.433V88.8H51.873V90H47.493V88.8ZM50.743 83.57C50.743 83.7033 50.7164 83.83 50.663 83.95C50.6164 84.0633 50.5497 84.1633 50.463 84.25C50.3764 84.33 50.273 84.3967 50.153 84.45C50.0397 84.4967 49.9197 84.52 49.793 84.52C49.6597 84.52 49.5364 84.4967 49.423 84.45C49.3097 84.3967 49.2097 84.33 49.123 84.25C49.0364 84.1633 48.9664 84.0633 48.913 83.95C48.8664 83.83 48.843 83.7033 48.843 83.57C48.843 83.4367 48.8664 83.3133 48.913 83.2C48.9664 83.08 49.0364 82.98 49.123 82.9C49.2097 82.8133 49.3097 82.7467 49.423 82.7C49.5364 82.6467 49.6597 82.62 49.793 82.62C49.9197 82.62 50.0397 82.6467 50.153 82.7C50.273 82.7467 50.3764 82.8133 50.463 82.9C50.5497 82.98 50.6164 83.08 50.663 83.2C50.7164 83.3133 50.743 83.4367 50.743 83.57ZM56.8861 85.04H58.1461V90H56.8861V89.28H56.7061C56.4861 89.8533 56.0128 90.14 55.2861 90.14C55.0394 90.14 54.8094 90.1 54.5961 90.02C54.3828 89.94 54.1961 89.8167 54.0361 89.65C53.8761 89.4833 53.7494 89.2767 53.6561 89.03C53.5694 88.7767 53.5261 88.48 53.5261 88.14V85.04H54.7861V87.88C54.7861 88.2333 54.8694 88.51 55.0361 88.71C55.2028 88.9033 55.4528 89 55.7861 89C56.1661 89 56.4428 88.88 56.6161 88.64C56.7961 88.3933 56.8861 88.06 56.8861 87.64V85.04ZM64.6291 90H63.3691V86.52C63.3691 86.38 63.3325 86.2767 63.2591 86.21C63.1925 86.1367 63.1025 86.1 62.9891 86.1C62.8558 86.1 62.7491 86.14 62.6691 86.22C62.5958 86.3 62.5591 86.42 62.5591 86.58V90H61.2991V86.52C61.2991 86.38 61.2591 86.2767 61.1791 86.21C61.1058 86.1367 61.0158 86.1 60.9091 86.1C60.7891 86.1 60.6891 86.14 60.6091 86.22C60.5291 86.3 60.4891 86.42 60.4891 86.58V90H59.2291V85.04H60.4891V85.52H60.6691C60.7091 85.34 60.7991 85.1933 60.9391 85.08C61.0858 84.96 61.2758 84.9 61.5091 84.9C61.7291 84.9 61.9158 84.96 62.0691 85.08C62.2225 85.1933 62.3258 85.34 62.3791 85.52H62.5591C62.6125 85.34 62.7225 85.1933 62.8891 85.08C63.0625 84.96 63.2758 84.9 63.5291 84.9C63.8625 84.9 64.1291 85.0133 64.3291 85.24C64.5291 85.46 64.6291 85.7667 64.6291 86.16V90Z" fill="#0D1238"/>
</svg>
