<svg width="45" height="52" viewBox="0 0 45 52" fill="none"
    xmlns="http://www.w3.org/2000/svg">
    <defs>
        <clipPath id="clip0_947_2264">
            <rect width="42.19" height="36.5502" fill="white" transform="translate(1.40527)"/>
        </clipPath>
    </defs>
    <g clip-path="url(#clip0_947_2264)">
        <path d="M24.4915 3.24829L24.1055 5.95048C24.1055 5.95048 29.6417 6.24236 33.6903 10.7994L32.2497 12.4282" stroke="#00FFFF" stroke-width="0.4"/>
        <path d="M33.5398 3.5214L31.9016 5.80932C23.3242 0.23546 13.9277 5.12201 13.9277 5.12201L16.5075 9.95206" stroke="#FF005C" stroke-width="0.4"/>
        <path d="M12.8638 14.1418L10.8207 12.2776C8.35389 14.7067 7.32762 18.3316 7.32762 18.3316L4.66309 17.343" stroke="#00FFFF" stroke-width="0.4"/>
        <path d="M5.30273 9.26458L7.79779 11.223C7.79779 11.223 9.35132 8.91621 11.1496 7.56982" stroke="#00FFFF" stroke-width="0.4"/>
        <path d="M40.5543 31.6448L37.5791 30.2795L35.7996 32.6051L32.5137 30.4678" stroke="#00FFFF" stroke-width="0.4"/>
        <path d="M1.65918 19.5557H4.59676V10.0085" stroke="#FF005C" stroke-width="0.4"/>
        <path d="M4.64389 20.9773H1.55566" stroke="#FF005C" stroke-width="0.4"/>
        <path d="M8.2692 36.4183C4.16413 32.5957 1.59375 27.1443 1.59375 21.0996C1.59375 9.54705 10.9526 0.188232 22.5052 0.188232C34.0577 0.188232 43.4166 9.54705 43.4166 21.0996C43.4166 27.116 40.8744 32.5298 36.8164 36.3524" stroke="#00FFFF" stroke-width="0.4"/>
        <path d="M22.1844 35.5334C22.0055 35.5145 21.8266 35.4957 21.6477 35.4863C19.8777 35.3451 18.2017 34.8649 16.6294 34.0646C14.7275 33.0948 13.1457 31.739 11.8746 30.0254C11.837 29.9783 11.7993 29.9218 11.7522 29.8653C10.9237 30.628 10.1046 31.3812 9.2666 32.1533V23.7266H18.4277C17.0342 25.007 15.6596 26.2781 14.2755 27.5398C16.0833 30.4114 19.6611 32.511 23.7662 32.1062C28.3326 31.6543 31.9763 28.1894 32.739 23.7266H36.1473C36.1002 23.9996 36.072 24.2632 36.0155 24.5269C35.3847 27.7469 33.8029 30.4114 31.2702 32.4922C29.4813 33.961 27.4476 34.9025 25.1691 35.3074C24.6136 35.4015 24.0486 35.4392 23.4931 35.5051C23.4461 35.5051 23.399 35.5239 23.3613 35.5239H22.175L22.1844 35.5334Z" fill="#00FFFF"/>
        <path d="M33.8503 14.3302C34.6506 13.5299 35.4415 12.7296 36.2512 11.9293V20.3465H27.881C29.0579 19.1696 30.2442 17.9927 31.4211 16.8158C29.7546 13.9818 26.318 11.6562 22.0811 11.9387C19.7461 12.0987 17.703 12.9649 15.9706 14.5373C14.2382 16.1002 13.1837 18.0492 12.7694 20.356H9.37988C9.71883 16.7687 12.148 11.9669 17.3358 9.679C19.2565 8.83162 21.2714 8.46443 23.371 8.55858C25.4612 8.65273 27.429 9.19882 29.265 10.2157C31.101 11.2325 32.6169 12.6072 33.8503 14.3396V14.3302Z" fill="#00FFFF"/>
        <path d="M30.2822 18.2186C28.8134 15.7141 26.0171 13.3791 22.2792 13.6239C20.2173 13.7651 18.4095 14.5278 16.8748 15.9212C15.3495 17.3053 14.4174 19.7344 14.0502 21.7681H9.38965" stroke="#00FFFF" stroke-width="0.35"/>
        <path d="M15.2178 25.9297C16.6866 28.4342 19.4829 30.7692 23.2208 30.5244C25.2827 30.3831 27.0905 29.6205 28.6252 28.227C30.1505 26.843 31.0826 24.4138 31.4498 22.3801H36.1103" stroke="#00FFFF" stroke-width="0.35"/>
        <path d="M38.7559 7.86182V23.7549L42.8892 25.7509" stroke="#FF005C" stroke-width="0.4"/>
        <path d="M6.42338 34.2999V23.9431L4.64389 22.3613H1.55566" stroke="#FF005C" stroke-width="0.4"/>
        <path d="M2.35645 26.7771H4.15477V31.1081" stroke="#FF005C" stroke-width="0.33"/>
        <path d="M41.015 11.6372V18.8588L38.6895 21.1843" stroke="#FF005C" stroke-width="0.4"/>
    </g>
    <path d="M8.0994 49H6.9114V47.11C6.9114 46.966 6.8724 46.849 6.7944 46.759C6.7224 46.669 6.5994 46.624 6.4254 46.624H5.0574V49H3.8694V42.7H6.2814C6.6054 42.7 6.8904 42.745 7.1364 42.835C7.3824 42.925 7.5864 43.051 7.7484 43.213C7.9164 43.369 8.0424 43.552 8.1264 43.762C8.2164 43.972 8.2614 44.197 8.2614 44.437V44.653C8.2614 44.911 8.1924 45.154 8.0544 45.382C7.9164 45.604 7.7034 45.775 7.4154 45.895V46.057C7.6254 46.081 7.7904 46.162 7.9104 46.3C8.0364 46.438 8.0994 46.612 8.0994 46.822V49ZM5.0574 45.49H6.1914C6.4794 45.49 6.6984 45.424 6.8484 45.292C6.9984 45.154 7.0734 44.962 7.0734 44.716V44.608C7.0734 44.398 6.9984 44.218 6.8484 44.068C6.6984 43.912 6.4794 43.834 6.1914 43.834H5.0574V45.49ZM10.4241 47.137C10.4301 47.269 10.4601 47.392 10.5141 47.506C10.5741 47.614 10.6521 47.71 10.7481 47.794C10.8501 47.872 10.9641 47.935 11.0901 47.983C11.2221 48.025 11.3601 48.046 11.5041 48.046C11.7861 48.046 12.0021 47.998 12.1521 47.902C12.3021 47.8 12.4101 47.68 12.4761 47.542L13.4481 48.082C13.3941 48.196 13.3191 48.316 13.2231 48.442C13.1271 48.562 13.0011 48.673 12.8451 48.775C12.6951 48.877 12.5091 48.961 12.2871 49.027C12.0711 49.093 11.8161 49.126 11.5221 49.126C11.1861 49.126 10.8801 49.072 10.6041 48.964C10.3281 48.856 10.0881 48.7 9.88414 48.496C9.68614 48.292 9.53014 48.043 9.41614 47.749C9.30814 47.455 9.25414 47.122 9.25414 46.75V46.696C9.25414 46.354 9.31114 46.042 9.42514 45.76C9.54514 45.478 9.70714 45.238 9.91114 45.04C10.1151 44.842 10.3521 44.689 10.6221 44.581C10.8981 44.467 11.1921 44.41 11.5041 44.41C11.8881 44.41 12.2181 44.479 12.4941 44.617C12.7701 44.749 12.9981 44.92 13.1781 45.13C13.3581 45.334 13.4901 45.562 13.5741 45.814C13.6581 46.06 13.7001 46.3 13.7001 46.534V47.137H10.4241ZM11.4951 45.436C11.2071 45.436 10.9731 45.511 10.7931 45.661C10.6131 45.805 10.4961 45.973 10.4421 46.165H12.5481C12.5121 45.955 12.3981 45.781 12.2061 45.643C12.0201 45.505 11.7831 45.436 11.4951 45.436ZM14.8999 44.536H16.1689V43.618C16.1689 43.36 16.2559 43.144 16.4299 42.97C16.6039 42.79 16.8199 42.7 17.0779 42.7H18.8959V43.78H17.5459C17.3839 43.78 17.3029 43.87 17.3029 44.05V44.536H19.0579V45.616H17.3029V49H16.1689V45.616H14.8999V44.536ZM20.2306 44.536H22.1206V45.184H22.2826C22.3666 44.938 22.5076 44.749 22.7056 44.617C22.9096 44.479 23.1526 44.41 23.4346 44.41C23.8786 44.41 24.2356 44.551 24.5056 44.833C24.7756 45.109 24.9106 45.532 24.9106 46.102V46.3L23.7406 46.408V46.282C23.7406 46.036 23.6776 45.841 23.5516 45.697C23.4256 45.547 23.2366 45.472 22.9846 45.472C22.7326 45.472 22.5346 45.559 22.3906 45.733C22.2466 45.907 22.1746 46.156 22.1746 46.48V47.92H23.2006V49H20.1226V47.92H21.0406V45.616H20.2306V44.536ZM26.9564 47.137C26.9624 47.269 26.9924 47.392 27.0464 47.506C27.1064 47.614 27.1844 47.71 27.2804 47.794C27.3824 47.872 27.4964 47.935 27.6224 47.983C27.7544 48.025 27.8924 48.046 28.0364 48.046C28.3184 48.046 28.5344 47.998 28.6844 47.902C28.8344 47.8 28.9424 47.68 29.0084 47.542L29.9804 48.082C29.9264 48.196 29.8514 48.316 29.7554 48.442C29.6594 48.562 29.5334 48.673 29.3774 48.775C29.2274 48.877 29.0414 48.961 28.8194 49.027C28.6034 49.093 28.3484 49.126 28.0544 49.126C27.7184 49.126 27.4124 49.072 27.1364 48.964C26.8604 48.856 26.6204 48.7 26.4164 48.496C26.2184 48.292 26.0624 48.043 25.9484 47.749C25.8404 47.455 25.7864 47.122 25.7864 46.75V46.696C25.7864 46.354 25.8434 46.042 25.9574 45.76C26.0774 45.478 26.2394 45.238 26.4434 45.04C26.6474 44.842 26.8844 44.689 27.1544 44.581C27.4304 44.467 27.7244 44.41 28.0364 44.41C28.4204 44.41 28.7504 44.479 29.0264 44.617C29.3024 44.749 29.5304 44.92 29.7104 45.13C29.8904 45.334 30.0224 45.562 30.1064 45.814C30.1904 46.06 30.2324 46.3 30.2324 46.534V47.137H26.9564ZM28.0274 45.436C27.7394 45.436 27.5054 45.511 27.3254 45.661C27.1454 45.805 27.0284 45.973 26.9744 46.165H29.0804C29.0444 45.955 28.9304 45.781 28.7384 45.643C28.5524 45.505 28.3154 45.436 28.0274 45.436ZM32.8901 45.796C32.8901 45.94 32.9651 46.045 33.1151 46.111C33.2651 46.171 33.5381 46.222 33.9341 46.264C34.3901 46.312 34.7621 46.45 35.0501 46.678C35.3381 46.9 35.4821 47.212 35.4821 47.614V47.668C35.4821 48.112 35.3201 48.466 34.9961 48.73C34.6721 48.994 34.2161 49.126 33.6281 49.126C33.2801 49.126 32.9831 49.081 32.7371 48.991C32.4911 48.901 32.2871 48.79 32.1251 48.658C31.9631 48.52 31.8371 48.37 31.7471 48.208C31.6631 48.04 31.6061 47.878 31.5761 47.722L32.6201 47.38C32.6681 47.572 32.7671 47.74 32.9171 47.884C33.0731 48.028 33.3101 48.1 33.6281 48.1C33.9101 48.1 34.1021 48.058 34.2041 47.974C34.3121 47.884 34.3661 47.788 34.3661 47.686C34.3661 47.626 34.3511 47.572 34.3211 47.524C34.2971 47.47 34.2491 47.422 34.1771 47.38C34.1051 47.332 34.0061 47.293 33.8801 47.263C33.7601 47.233 33.6071 47.209 33.4211 47.191C32.9171 47.149 32.5151 47.02 32.2151 46.804C31.9211 46.582 31.7741 46.258 31.7741 45.832V45.778C31.7741 45.556 31.8221 45.361 31.9181 45.193C32.0141 45.025 32.1401 44.884 32.2961 44.77C32.4521 44.65 32.6321 44.56 32.8361 44.5C33.0401 44.44 33.2501 44.41 33.4661 44.41C33.7481 44.41 33.9911 44.446 34.1951 44.518C34.4051 44.584 34.5821 44.674 34.7261 44.788C34.8701 44.896 34.9871 45.019 35.0771 45.157C35.1671 45.289 35.2361 45.418 35.2841 45.544L34.2581 45.958C34.2041 45.796 34.1111 45.67 33.9791 45.58C33.8471 45.484 33.6761 45.436 33.4661 45.436C33.2741 45.436 33.1301 45.472 33.0341 45.544C32.9381 45.61 32.8901 45.694 32.8901 45.796ZM38.1309 49H36.9969V42.7H38.1309V45.256H38.2929C38.4069 44.986 38.5749 44.779 38.7969 44.635C39.0189 44.485 39.2919 44.41 39.6159 44.41C39.8379 44.41 40.0419 44.446 40.2279 44.518C40.4139 44.59 40.5759 44.698 40.7139 44.842C40.8519 44.986 40.9599 45.172 41.0379 45.4C41.1159 45.622 41.1549 45.886 41.1549 46.192V49H40.0209V46.462C40.0209 46.144 39.9429 45.895 39.7869 45.715C39.6369 45.529 39.4179 45.436 39.1299 45.436C38.7939 45.436 38.5419 45.55 38.3739 45.778C38.2119 46 38.1309 46.3 38.1309 46.678V49Z" fill="#00FFFF"/>
</svg>
